# xmcd CD database file
#
# Track frame offsets:
#	150
#	35332
#	58270
#	93747
#	115965
#	157692
#	196715
#
# Disc length: 2848 seconds
#
# Revision: 0
# Processed by: cddbd v1.4PL0 Copyright (c) Steve Scherf et al.
# Submitted via: CDex 1.50beta9
#
DISCID=530b1e07
DTITLE=UMEZU KAZUTOKI  KIKI BAND - KIKI
DYEAR=2001
DGENRE=Jazz
TTITLE0=KIKI
TTITLE1=Flying Head
TTITLE2=Vietnames Gospel
TTITLE3=Moon Struck
TTITLE4=Dancing Bones
TTITLE5=SOLA
TTITLE6=Fucking Ada
EXTD=YEAR: 2001
EXTT0=
EXTT1=
EXTT2=
EXTT3=
EXTT4=
EXTT5=
EXTT6=
PLAYORDER=
